# xmcd CD database file generated by Grip 2.96
# 
# Track frame offsets:
#       150
#       11985
#       27445
#       41247
#       56780
#       68810
#       81110
#       97632
#       114527
#       129075
# 
# Disc length: 1900 seconds
# 
# Revision: 0
# Processed by: cddbd v1.4PL0 Copyright (c) Steve Scherf et al.
# Submitted via: Grip 2.96
# 
DISCID=7e076a0a
DTITLE=Louis Armstrong - Louis Armstrong All-Time Greats
DYEAR=1900
DGENRE=
TTITLE0=Mahogany Hall Stomp
TTITLE1=Sugar
TTITLE2=I Gotta Right to Sing the Blues
TTITLE3=Basin Street Blues
TTITLE4=Swing, You Cats
TTITLE5=St. Louis Blues
TTITLE6=St. James Infirmary
TTITLE7=Pennies From Heaven
TTITLE8=That's My Home
TTITLE9=Do You Know What it Means to Miss New Orleans?
EXTD=
EXTT0=
EXTT1=
EXTT2=
EXTT3=
EXTT4=
EXTT5=
EXTT6=
EXTT7=
EXTT8=
EXTT9=
PLAYORDER=
